<svg width="512" height="512" viewBox="0 0 512 512" fill="none" xmlns="http://www.w3.org/2000/svg">
<g clip-path="url(#clip0_1_29)">
<path d="M375.054 0.00304201C301.317 0.521962 240.782 60.9308 240.114 134.665C239.745 175.297 257.022 213.07 287.731 239.269C285.66 244.719 283.06 249.956 279.967 254.897C270.863 269.447 280.275 288.539 297.359 290.217C302.184 290.696 306.534 287.169 307.013 282.29C307.49 277.435 303.941 273.113 299.086 272.636C295.046 272.239 292.796 267.698 294.943 264.267C299.889 256.36 303.787 247.824 306.523 238.898C307.598 235.392 306.396 231.587 303.501 229.336C274.106 206.476 257.441 172.027 257.78 134.823C258.36 70.6744 311.027 18.1189 375.18 17.6673C441.353 17.2654 494.293 70.6468 494.293 135.924C494.293 235.219 413.67 262.888 365.61 270.543C360.793 271.311 357.509 275.839 358.277 280.656C359.043 285.472 363.56 288.751 368.389 287.989C454.968 274.197 511.957 223.145 511.957 135.925C511.957 61.0125 451.168 -0.498212 375.054 0.00304201Z" fill="#00A28A"/>
<path d="M341.056 145.517C341.056 152.949 335.031 158.974 327.599 158.974C320.167 158.974 314.142 152.949 314.142 145.517C314.142 138.085 320.167 132.06 327.599 132.06C335.031 132.06 341.056 138.085 341.056 145.517Z" fill="#00A28A"/>
<path d="M389.71 145.517C389.71 152.949 383.685 158.974 376.252 158.974C368.82 158.974 362.795 152.949 362.795 145.517C362.795 138.085 368.82 132.06 376.252 132.06C383.685 132.06 389.71 138.085 389.71 145.517Z" fill="#00A28A"/>
<path d="M438.363 145.517C438.363 152.949 432.338 158.974 424.906 158.974C417.473 158.974 411.448 152.949 411.448 145.517C411.448 138.085 417.473 132.06 424.906 132.06C432.338 132.06 438.363 138.085 438.363 145.517Z" fill="#00A28A"/>
<path d="M370.732 327.276C354.348 317.911 333.506 320.773 320.046 334.231C316.856 337.427 299.055 370.585 254.718 354.044C207.836 336.554 166.265 273.44 199.601 236.614C205.87 229.786 210.074 227.852 211.808 226.123C225.306 212.624 228.192 191.754 218.826 175.372C203.354 148.301 180.839 125.794 153.715 110.281C137.624 101.078 116.824 103.952 103.134 117.262C-3.6191 220.84 86.9887 392.396 213.579 461.139C186.556 495.986 139.535 501.695 107.165 486.109C117.254 476.403 123.645 463.988 124.343 450.929C125.205 434.498 119.211 421.311 107.897 414.747C86.4874 402.333 56.6065 418.739 59.7664 450.587C61.0394 463.39 66.7652 475.185 75.8904 484.947C73.7054 485.72 71.4476 486.365 69.1345 486.864C58.6491 489.125 32.5485 491.083 16.6762 460.47C14.4305 456.138 9.09775 454.451 4.76864 456.694C0.438422 458.939 -1.25193 464.27 0.992672 468.601C15.8945 497.343 42.7569 510.622 72.8608 504.132C79.4136 502.719 85.6053 500.446 91.2692 497.488C99.5521 502.652 109.18 506.639 119.818 509.126C162.095 519.007 208.586 503.389 234.049 462.614C236.806 458.202 235.167 452.354 230.493 450.028C108.645 389.388 16.5735 225.864 115.442 129.934C123.524 122.076 135.656 120.301 144.945 125.615C169.337 139.565 189.581 159.802 203.491 184.139C208.793 193.414 207.269 205.218 199.829 213.103C198.109 214.307 196.469 215.562 194.89 216.851C178.726 192.003 158.882 169.995 135.767 151.337C131.971 148.271 126.41 148.865 123.347 152.662C120.283 156.458 120.876 162.019 124.672 165.082C147.412 183.438 166.782 205.247 182.324 229.971C126.83 305.419 270.578 435.263 332.994 346.279C340.841 338.819 352.661 337.295 361.966 342.613C386.303 356.525 406.539 376.77 420.488 401.158C425.802 410.449 424.027 422.581 416.172 430.659C414.877 431.991 413.575 433.279 412.266 434.534C397.756 412.068 380.122 391.779 359.728 374.125C356.041 370.93 350.462 371.334 347.27 375.021C344.076 378.71 344.479 384.288 348.166 387.48C367.883 404.549 384.84 424.241 398.675 446.085C358.459 476.187 314.227 475.453 282.399 468.594C277.629 467.569 272.932 470.597 271.904 475.367C270.876 480.137 273.908 484.835 278.678 485.862C338.299 498.713 389.96 482.94 428.839 442.977C442.155 429.28 445.027 408.478 435.824 392.39C420.312 365.266 397.804 342.75 370.732 327.276ZM106.703 449.995C106.19 459.601 100.561 468.957 91.9272 475.993C83.5815 468.425 78.3592 459.039 77.3456 448.843C75.6111 431.371 90.058 424.821 99.0342 430.03C104.49 433.194 107.212 440.288 106.703 449.995Z" fill="#00A28A"/>
</g>
<defs>
<clipPath id="clip0_1_29">
<rect width="512" height="512" fill="white"/>
</clipPath>
</defs>
</svg>