<svg width="512" height="512" viewBox="0 0 512 512" fill="none" xmlns="http://www.w3.org/2000/svg">
<path d="M106.807 177.31C106.556 182.711 101.975 186.887 96.5734 186.636C91.1717 186.386 86.9963 181.804 87.2461 176.402C87.497 171.002 92.078 166.825 97.4797 167.076C102.881 167.327 107.057 171.908 106.807 177.31ZM510.052 328.224C507.606 333.768 503.16 338.023 497.534 340.204L468.156 351.594C465.474 352.633 462.713 353.125 459.996 353.125C450.915 353.125 442.328 347.626 438.854 338.664L436.291 332.052L412.38 342.029C413.533 348.804 412.425 355.844 409.062 361.959C405.071 369.215 398.462 374.472 390.455 376.764C390.125 376.857 389.794 376.946 389.464 377.03C392.078 384.911 391.555 393.786 387.286 401.549C380.983 413.009 368.402 418.882 356.165 417.26C356.53 422.9 355.36 428.689 352.457 433.964C348.48 441.195 341.899 446.443 333.924 448.739C328.938 450.174 323.805 450.337 318.902 449.274C319.06 454.589 317.854 460.003 315.125 464.967C311.145 472.203 304.28 477.635 296.293 479.875C293.533 480.649 290.735 481.031 287.965 481.031C282.775 481.031 277.679 479.689 273.093 477.056L264.994 472.404C260.978 478.057 255.229 482.212 248.454 484.265C245.415 485.186 242.311 485.642 239.228 485.642C234.119 485.642 229.067 484.39 224.451 481.921C217.601 478.258 212.546 472.345 209.897 465.447C201.346 469.084 191.313 468.919 182.645 464.283C176.508 461.001 171.787 455.851 168.968 449.797C159.951 454.677 148.75 455.097 139.081 449.926C131.677 445.967 126.253 439.339 123.806 431.263C122.413 426.669 122.083 421.929 122.786 417.332C117.453 417.454 112.125 416.244 107.251 413.638C99.8476 409.679 94.4232 403.051 91.9758 394.974C89.5284 386.898 90.3614 378.374 94.32 370.972L102.229 356.186C100.462 351.985 99.5906 347.392 98.7555 342.904C97.2402 334.761 96.0614 329.717 92.461 328.319C90.3377 327.495 84.8328 325.1 75.36 320.878L72.1838 328.065C69.7446 333.583 65.2885 337.828 59.637 340.015C56.9728 341.046 54.1961 341.56 51.4287 341.56C48.3248 341.56 45.2312 340.914 42.3141 339.625L13.4942 326.887C7.97593 324.448 3.73242 319.992 1.54513 314.34C-0.642171 308.688 -0.50282 302.536 1.93531 297.017L68.1013 147.307C70.5405 141.788 74.9966 137.544 80.6481 135.357C86.2996 133.168 92.4517 133.307 97.971 135.747L126.791 148.484C132.309 150.923 136.553 155.379 138.74 161.031C140.927 166.684 140.788 172.836 138.35 178.354L133.387 189.583L152.145 198.237C152.345 198.33 152.542 198.43 152.734 198.539C163.043 204.339 173.808 201.816 187.438 198.622C205.226 194.452 227.123 189.332 252.662 204.344C287.949 182.529 315.059 193.586 335.071 201.766C349.985 207.864 358.86 211.086 367.833 206.419L384.19 197.663L379.688 186.05C375.175 174.406 380.976 161.26 392.617 156.748L421.997 145.358C433.64 140.844 446.786 146.645 451.3 158.288L510.463 310.901C512.646 316.528 512.499 322.679 510.052 328.224ZM123.244 171.679C123.901 170.194 123.934 168.532 123.338 166.992C122.744 165.454 121.598 164.246 120.114 163.59L91.2945 150.853C90.5152 150.509 89.6853 150.335 88.8512 150.335C88.0977 150.335 87.339 150.477 86.6092 150.759C85.0722 151.354 83.8635 152.499 83.208 153.982L17.0379 303.692C15.6712 306.784 17.075 310.413 20.1676 311.779L48.9875 324.517C50.4719 325.173 52.1358 325.206 53.6728 324.611C55.2098 324.015 56.4185 322.871 57.074 321.387L123.244 171.679ZM131.339 397.664L150.21 365.003C153.32 357.86 150.433 349.462 143.545 345.786C136.241 341.889 127.126 344.647 123.227 351.938L108.881 378.761C107.002 382.273 106.611 386.33 107.779 390.184C108.948 394.038 111.525 397.195 115.037 399.073C120.267 401.871 126.676 401.277 131.339 397.664ZM167.226 429.116L188.077 388.737C189.335 382.336 186.231 375.628 180.468 372.552C175.186 369.734 168.738 370.353 164.07 374.029L140.71 415.05C138.832 418.562 138.441 422.618 139.609 426.472C140.778 430.326 143.354 433.483 146.867 435.361C154.158 439.26 163.289 436.457 167.226 429.116ZM209.432 445.576L227.923 410.036C229.175 403.638 226.071 396.936 220.311 393.862C214.569 390.798 207.314 391.902 202.695 396.424L182.551 435.435C182.157 441.3 185.217 446.932 190.431 449.72C196.914 453.187 204.995 451.39 209.432 445.576ZM252.551 461.202L266.305 435.482C269.013 430.419 268.543 424.128 265.109 419.455C263.796 417.668 262.128 416.227 260.152 415.172C254.408 412.104 247.149 413.214 242.528 417.747L224.399 452.591C223.788 458.639 226.839 464.471 232.237 467.358C235.75 469.237 239.808 469.628 243.66 468.461C247.516 467.291 250.673 464.714 252.551 461.202ZM294.973 437.461C294.528 437.212 284.409 431.326 284.409 431.326C284.038 435.449 282.877 439.519 280.87 443.27L273.012 457.964L281.316 462.734C284.475 464.549 288.21 464.989 291.832 463.972C295.58 462.921 298.795 460.383 300.652 457.007C304.445 450.112 301.898 441.342 294.973 437.461ZM394.856 340.899C393.544 338.193 391.459 335.971 388.828 334.47L310.692 289.934C297.421 282.37 280.846 289.082 261.654 296.851C247.306 302.66 231.177 309.188 214.836 309.189C198.869 309.19 182.698 302.961 167.764 283.746C165.827 281.262 165.054 278.052 165.65 274.951C166.247 271.85 168.157 269.154 170.89 267.559C192.927 254.697 211.538 240.659 226.207 225.835C230.024 221.977 233.875 218.431 237.728 215.203C220.821 207.771 206.364 211.15 191.206 214.702C176.231 218.213 160.747 221.841 144.94 213.101L126.709 204.691L82.0334 305.77C91.0819 309.803 96.594 312.207 98.4345 312.921C109.444 317.194 112.572 327.709 114.35 336.546C123.92 327.147 138.876 324.573 151.321 331.215C160.542 336.137 166.361 345.081 167.687 354.804C174.553 353.539 181.811 354.547 188.243 357.981C195.973 362.107 201.386 369.07 203.679 377.045C211.574 374.532 220.361 375.168 228.087 379.292C235.816 383.416 241.229 390.38 243.522 398.354C251.417 395.841 260.209 396.475 267.934 400.604C271.621 402.574 274.805 405.192 277.418 408.392L318.551 431.675C321.839 433.503 325.674 433.929 329.352 432.868C333.072 431.797 336.139 429.36 337.983 426.005C341.756 419.147 339.19 410.396 332.263 406.497C331.814 406.244 274.538 373.852 274.538 373.852C270.563 371.615 269.154 366.58 271.391 362.605C273.627 358.631 278.661 357.221 282.637 359.458L353.347 399.246C360.272 403.05 369.003 400.515 372.811 393.592C376.583 386.735 374.016 377.985 367.091 374.085C347.085 362.88 330.416 353.527 313.258 343.704C309.301 341.439 307.929 336.393 310.195 332.435C312.459 328.478 317.503 327.106 321.464 329.372C338.562 339.16 355.201 348.496 375.175 359.684C378.43 361.508 382.241 361.936 385.907 360.888C389.651 359.816 392.733 357.371 394.586 354.003C396.827 349.934 396.924 345.159 394.856 340.899ZM430.319 316.649L390.205 213.178L375.541 221.026C359.259 229.495 343.786 223.171 328.822 217.055C308.57 208.776 287.627 200.214 257.437 220.924C251.01 225.316 244.457 230.874 237.947 237.453C223.552 251.999 205.727 265.768 184.895 278.438C206.283 301.449 229.187 292.177 255.455 281.543C276.688 272.948 298.642 264.059 318.87 275.586L397.006 320.122C400.213 321.95 403.038 324.293 405.385 327.051L430.319 316.649ZM495.066 316.872L435.903 164.258C434.962 161.831 432.637 160.342 430.178 160.342C429.442 160.342 428.694 160.475 427.968 160.757L398.589 172.146C395.436 173.369 393.866 176.928 395.087 180.081L454.252 332.694C455.474 335.846 459.037 337.417 462.187 336.195L491.565 324.805C494.717 323.583 496.287 320.025 495.066 316.872ZM421.038 176.677C415.645 176.677 411.247 181.075 411.247 186.468C411.247 191.86 415.644 196.258 421.038 196.258C426.43 196.258 430.828 191.861 430.828 186.468C430.827 181.075 426.43 176.677 421.038 176.677ZM255.998 106.541C260.559 106.541 264.256 102.843 264.256 98.283V34.2579C264.256 29.6975 260.559 26 255.998 26C251.438 26 247.741 29.6975 247.741 34.2579V98.283C247.741 102.844 251.438 106.541 255.998 106.541ZM160.719 126.026C162.248 128.675 165.024 130.156 167.879 130.156C169.279 130.156 170.699 129.799 172 129.049C175.949 126.768 177.303 121.718 175.022 117.768L143.009 62.3211C140.73 58.3718 135.68 57.0186 131.729 59.2988C127.78 61.579 126.425 66.6297 128.707 70.579L160.719 126.026ZM339.997 129.049C341.298 129.8 342.717 130.156 344.118 130.156C346.972 130.156 349.748 128.675 351.277 126.026L383.291 70.579C385.572 66.6297 384.218 61.579 380.269 59.2988C376.318 57.0175 371.269 58.3708 368.988 62.3211L336.975 117.768C334.694 121.718 336.048 126.767 339.997 129.049Z" fill="#00A28A"/>
</svg>