<svg width="512" height="512" viewBox="0 0 512 512" fill="none" xmlns="http://www.w3.org/2000/svg">
<g clip-path="url(#clip0_2_137)">
<path d="M131.366 255.588C131.366 242.005 120.312 230.951 106.729 230.951C93.1464 230.951 82.0914 242.005 82.0914 255.588C82.0914 269.171 93.1454 280.225 106.728 280.225C120.311 280.225 131.366 269.172 131.366 255.588ZM106.729 263.801C102.196 263.801 98.5164 260.114 98.5164 255.589C98.5164 251.064 102.195 247.376 106.729 247.376C111.262 247.376 114.941 251.063 114.941 255.589C114.941 260.114 111.262 263.801 106.729 263.801Z" fill="#00A28A"/>
<path d="M471.429 300.231L462.559 202.594C460.613 181.307 443.03 165.252 421.653 165.252H386.232L498.202 94.5616C505.895 89.705 508.4 79.653 503.887 71.7537L479.767 29.5336C474.966 21.1298 464.127 18.4242 455.94 23.5858L179.122 198.101H139.579V130.611L167.222 145.96C171.468 147.865 175.977 148.826 180.633 148.826C193.584 148.826 205.377 141.164 210.674 129.288C218.008 112.732 210.51 93.3008 194.635 86.2868L174.145 74.8959L193.986 63.8669C210.518 56.5249 218.008 37.0859 210.666 20.521C205.394 8.66198 193.6 1 180.633 1C175.993 1 171.492 1.961 166.622 4.16999L106.737 37.4559L46.2034 3.85099C41.9655 1.962 37.4735 1.001 32.8255 1.001C19.8575 1.001 8.07252 8.66298 2.78353 20.539C-4.55045 37.0949 2.94753 56.5259 18.8225 63.5389L39.3125 74.9299L19.4715 85.9588C2.93953 93.3008 -4.55045 112.74 2.79153 129.313C8.08852 141.164 19.8735 148.826 32.8245 148.826C37.4805 148.826 41.9895 147.857 46.8514 145.64L73.8784 130.619V198.101H32.8165C30.0325 198.101 27.4375 199.514 25.9185 201.854C24.3995 204.194 24.1855 207.143 25.3275 209.681L73.8794 317.576V444.476C51.2374 444.476 32.8175 462.897 32.8175 485.538V510.176H180.642V485.537C180.642 462.895 162.221 444.475 139.579 444.475V320.967L221.154 269.466L218.362 300.23C196.394 308.319 180.642 329.393 180.642 354.137V386.987V403.412C180.642 423.237 194.776 439.826 213.492 443.645V452.687C213.492 466.27 224.546 477.324 238.129 477.324H270.979C284.562 477.324 295.616 466.27 295.616 452.687V444.475H394.166V452.687C394.166 466.27 405.22 477.324 418.803 477.324H451.653C465.236 477.324 476.291 466.27 476.291 452.687V443.645C495.007 439.826 509.141 423.245 509.141 403.412V386.987V354.137C509.141 329.393 493.398 308.312 471.429 300.231ZM421.653 181.676C434.489 181.676 445.034 191.309 446.192 204.08L454.618 296.798C453.633 296.749 452.655 296.65 451.653 296.65H438.119L430.514 213.031C429.734 204.523 422.704 198.101 414.155 198.101H334.198L360.215 181.676H421.653ZM492.716 395.2H476.291V378.775H459.866V395.2H443.441V378.775H427.016V395.2H399.455C409.983 386.692 418.081 375.35 422.705 362.35H468.079C481.662 362.35 492.716 373.404 492.716 386.988V395.2ZM410.591 337.712C410.591 369.412 384.796 395.199 353.104 395.199H336.679C304.987 395.199 279.192 369.412 279.192 337.712V313.075H410.592V337.712H410.591ZM246.341 378.775V395.2H229.916V378.775H213.491V395.2H197.066V386.987C197.066 373.404 208.12 362.349 221.703 362.349H267.077C271.692 375.349 279.79 386.691 290.327 395.199H262.766V378.774L246.341 378.775ZM187.95 211.947L197.066 206.198V265.245L150.23 294.81L187.95 211.947ZM213.491 195.843L246.341 175.131V234.13L213.491 254.867V195.843ZM394.166 140.811L361.316 161.548V102.648L394.166 81.9358V140.811ZM410.591 71.5869L443.441 50.8749V109.701L410.591 130.438V71.5869ZM344.891 171.92L312.041 192.657V133.716L344.891 113.004V171.92ZM295.616 203.029L262.766 223.766V164.776L295.616 144.064V203.029ZM308.181 214.526H414.155L421.628 296.65H368.698C364.879 277.934 348.298 263.801 328.465 263.801C308.632 263.801 292.051 277.934 288.232 296.65H268.161L273.647 236.33L308.181 214.526ZM351.593 296.65H305.348C308.748 287.115 317.782 280.225 328.474 280.225C339.167 280.225 348.193 287.115 351.593 296.65ZM489.899 80.3748L459.866 99.3378V40.5199L465.196 37.1609L489.899 80.3748ZM60.1804 119.483L45.5465 90.2218L153.286 30.3449L167.921 59.6059L60.1804 119.483ZM195.67 122.62C193.017 128.566 187.113 132.401 180.633 132.401C178.317 132.401 176.067 131.916 174.58 131.284L167.665 127.441L182.3 98.1798L187.318 100.964C195.588 104.643 199.325 114.358 195.67 122.62ZM167.92 90.2128L153.294 119.466L123.63 102.984L157.252 84.2918L167.92 90.2128ZM180.633 17.426C187.121 17.426 193.026 21.261 195.662 27.1819C199.317 35.4599 195.58 45.1839 186.661 49.1829L182.284 51.6139L167.657 22.354L173.964 18.847C176.075 17.902 178.317 17.426 180.633 17.426ZM17.7875 27.1989C20.4315 21.261 26.3365 17.426 32.8245 17.426C35.1405 17.426 37.3905 17.902 38.8605 18.526L45.7914 22.378L31.1655 51.6389L26.1475 48.8549C17.8785 45.1839 14.1415 35.4689 17.7875 27.1989ZM45.5465 59.6139L60.1724 30.3609L89.8444 46.8429L56.2144 65.5349L45.5465 59.6139ZM17.7965 122.645C14.1415 114.367 17.8785 104.643 26.7975 100.644L31.1825 98.2048L45.8084 127.474L39.4935 130.981C31.4945 134.577 21.3935 130.685 17.7965 122.645ZM90.3044 121.495L106.721 112.371L123.154 121.495V198.101H90.3044V121.495ZM168.733 214.526L106.77 350.647L45.5215 214.526H168.733ZM164.216 485.537V493.749H49.2414V485.537C49.2414 471.954 60.2954 460.9 73.8784 460.9H139.578C153.17 460.9 164.216 471.954 164.216 485.537ZM90.3044 444.475V354.08L99.2393 373.938C100.561 376.886 103.863 378.611 106.729 378.783C109.948 378.783 112.872 376.902 114.202 373.97L123.154 354.309V444.474H90.3044V444.475ZM238.654 258.422L256.147 247.376L251.663 296.65H238.129C237.127 296.65 236.15 296.749 235.164 296.798L238.654 258.422ZM238.129 313.075H262.767V337.712C262.767 340.488 262.948 343.223 263.251 345.924H221.704C212.424 345.924 203.949 349.135 197.067 354.35V354.136C197.066 331.496 215.487 313.075 238.129 313.075ZM279.191 452.687C279.191 457.212 275.512 460.899 270.979 460.899H238.129C233.596 460.899 229.917 457.212 229.917 452.687V444.475H279.192L279.191 452.687ZM451.654 460.9H418.804C414.271 460.9 410.592 457.213 410.592 452.688V444.476H459.867V452.688C459.866 457.212 456.187 460.9 451.654 460.9ZM468.079 428.05H221.704C211.011 428.05 201.978 421.16 198.578 411.625H336.679H353.104H491.205C487.805 421.16 478.771 428.05 468.079 428.05ZM492.716 354.351C485.834 349.136 477.359 345.925 468.079 345.925H426.532C426.836 343.223 427.017 340.488 427.017 337.713V313.076H451.654C474.296 313.076 492.717 331.497 492.717 354.138V354.351H492.716Z" fill="#00A28A"/>
</g>
<defs>
<clipPath id="clip0_2_137">
<rect width="512" height="512" fill="white"/>
</clipPath>
</defs>
</svg>