<svg width="512" height="512" viewBox="0 0 512 512" fill="none" xmlns="http://www.w3.org/2000/svg">
<g clip-path="url(#clip0_2_140)">
<path d="M0 411H511" stroke="#00A28A" stroke-width="14" stroke-linecap="round"/>
<path d="M103.334 294C92.2584 294 81.4314 297.284 72.2222 303.438C63.0131 309.591 55.8354 318.337 51.5969 328.57C47.3584 338.802 46.2494 350.062 48.4102 360.925C50.5709 371.788 55.9044 381.766 63.7362 389.598C71.5679 397.43 81.5461 402.763 92.4091 404.924C103.272 407.085 114.532 405.976 124.764 401.737C134.997 397.499 143.743 390.321 149.896 381.112C156.05 371.903 159.334 361.076 159.334 350C159.334 335.148 153.434 320.904 142.932 310.402C132.43 299.9 118.186 294 103.334 294ZM103.334 390C95.4229 390 87.6893 387.654 81.1113 383.259C74.5334 378.864 69.4065 372.616 66.3789 365.307C63.3514 357.998 62.5593 349.956 64.1027 342.196C65.6461 334.437 69.4558 327.31 75.0499 321.716C80.644 316.122 87.7713 312.312 95.5305 310.769C103.29 309.225 111.332 310.017 118.641 313.045C125.951 316.072 132.198 321.199 136.593 327.777C140.988 334.355 143.334 342.089 143.334 350C143.334 360.609 139.12 370.783 131.618 378.284C124.117 385.786 113.943 390 103.334 390Z" fill="#00A28A"/>
<path d="M127.334 342C125.212 342 123.178 342.843 121.677 344.343C120.177 345.843 119.334 347.878 119.334 350C119.334 353.165 118.396 356.258 116.638 358.889C114.88 361.52 112.381 363.571 109.457 364.782C106.533 365.993 103.316 366.31 100.213 365.693C97.109 365.075 94.2581 363.551 92.0204 361.314C89.7828 359.076 88.2589 356.225 87.6416 353.121C87.0242 350.018 87.341 346.801 88.552 343.877C89.7631 340.953 91.8138 338.455 94.445 336.696C97.0762 334.938 100.17 334 103.334 334C105.456 334 107.491 333.157 108.991 331.657C110.491 330.157 111.334 328.122 111.334 326C111.334 323.878 110.491 321.843 108.991 320.343C107.491 318.843 105.456 318 103.334 318C97.0051 318 90.8183 319.877 85.5559 323.393C80.2935 326.909 76.192 331.907 73.77 337.754C71.348 343.601 70.7143 350.035 71.949 356.243C73.1837 362.45 76.2314 368.152 80.7067 372.627C85.182 377.103 90.8838 380.15 97.0912 381.385C103.299 382.62 109.733 381.986 115.58 379.564C121.427 377.142 126.425 373.041 129.941 367.778C133.457 362.516 135.334 356.329 135.334 350C135.334 347.878 134.491 345.843 132.991 344.343C131.491 342.843 129.456 342 127.334 342Z" fill="#00A28A"/>
<path d="M375.334 294C364.258 294 353.431 297.284 344.222 303.438C335.013 309.591 327.835 318.337 323.597 328.57C319.358 338.802 318.249 350.062 320.41 360.925C322.571 371.788 327.904 381.766 335.736 389.598C343.568 397.43 353.546 402.763 364.409 404.924C375.272 407.085 386.532 405.976 396.764 401.737C406.997 397.499 415.743 390.321 421.896 381.112C428.05 371.903 431.334 361.076 431.334 350C431.334 335.148 425.434 320.904 414.932 310.402C404.43 299.9 390.186 294 375.334 294ZM375.334 390C367.423 390 359.689 387.654 353.111 383.259C346.533 378.864 341.406 372.616 338.379 365.307C335.351 357.998 334.559 349.956 336.103 342.196C337.646 334.437 341.456 327.31 347.05 321.716C352.644 316.122 359.771 312.312 367.531 310.769C375.29 309.225 383.332 310.017 390.641 313.045C397.951 316.072 404.198 321.199 408.593 327.777C412.988 334.355 415.334 342.089 415.334 350C415.334 360.609 411.12 370.783 403.618 378.284C396.117 385.786 385.943 390 375.334 390Z" fill="#00A28A"/>
<path d="M399.334 342C397.212 342 395.178 342.843 393.677 344.343C392.177 345.843 391.334 347.878 391.334 350C391.334 353.165 390.396 356.258 388.638 358.889C386.88 361.52 384.381 363.571 381.457 364.782C378.533 365.993 375.316 366.31 372.213 365.693C369.109 365.075 366.258 363.551 364.02 361.314C361.783 359.076 360.259 356.225 359.642 353.121C359.024 350.018 359.341 346.801 360.552 343.877C361.763 340.953 363.814 338.455 366.445 336.696C369.076 334.938 372.17 334 375.334 334C377.456 334 379.491 333.157 380.991 331.657C382.491 330.157 383.334 328.122 383.334 326C383.334 323.878 382.491 321.843 380.991 320.343C379.491 318.843 377.456 318 375.334 318C369.005 318 362.818 319.877 357.556 323.393C352.293 326.909 348.192 331.907 345.77 337.754C343.348 343.601 342.714 350.035 343.949 356.243C345.184 362.45 348.231 368.152 352.707 372.627C357.182 377.103 362.884 380.15 369.091 381.385C375.299 382.62 381.733 381.986 387.58 379.564C393.427 377.142 398.425 373.041 401.941 367.778C405.457 362.516 407.334 356.329 407.334 350C407.334 347.878 406.491 345.843 404.991 344.343C403.491 342.843 401.456 342 399.334 342Z" fill="#00A28A"/>
<path d="M311.334 358H167.334C165.212 358 163.178 358.843 161.677 360.343C160.177 361.843 159.334 363.878 159.334 366C159.334 368.122 160.177 370.157 161.677 371.657C163.178 373.157 165.212 374 167.334 374H311.334C313.456 374 315.491 373.157 316.991 371.657C318.491 370.157 319.334 368.122 319.334 366C319.334 363.878 318.491 361.843 316.991 360.343C315.491 358.843 313.456 358 311.334 358Z" fill="#00A28A"/>
<path d="M503.334 332.56V294C503.334 291.878 502.491 289.843 500.991 288.343C499.491 286.843 497.456 286 495.334 286H487.334V246C487.334 235.391 483.12 225.217 475.618 217.716C468.117 210.214 457.943 206 447.334 206H435.654L389.974 137.6C389.249 136.5 388.264 135.595 387.106 134.967C385.947 134.339 384.652 134.007 383.334 134H348.294L334.454 106.4C333.789 105.081 332.772 103.971 331.515 103.195C330.259 102.418 328.811 102.004 327.334 102H279.334C277.857 102.004 276.41 102.418 275.153 103.195C273.896 103.971 272.879 105.081 272.214 106.4L258.374 134H223.334C221.351 134.005 219.441 134.746 217.974 136.08L132.214 214C84.7741 214.56 62.9341 227.04 41.6541 248.32C31.9314 258.268 25.5311 270.985 23.3341 284.72L16.2941 327.28C10.9612 329.088 6.43392 332.714 3.5042 337.522C0.574484 342.331 -0.571069 348.017 0.267967 353.585C1.107 359.153 3.8772 364.249 8.09389 367.981C12.3106 371.713 17.7053 373.844 23.3341 374H39.3341C41.4558 374 43.4907 373.157 44.991 371.657C46.4912 370.157 47.3341 368.122 47.3341 366C47.3341 363.878 46.4912 361.843 44.991 360.343C43.4907 358.843 41.4558 358 39.3341 358H23.3341C21.2124 358 19.1775 357.157 17.6772 355.657C16.177 354.157 15.3341 352.122 15.3341 350C15.3341 347.878 16.177 345.843 17.6772 344.343C19.1775 342.843 21.2124 342 23.3341 342H39.3341C41.4558 342 43.4907 341.157 44.991 339.657C46.4912 338.157 47.3341 336.122 47.3341 334C47.3341 331.878 46.4912 329.843 44.991 328.343C43.4907 326.843 41.4558 326 39.3341 326H32.7741L39.3341 286.88C41.0865 276.638 45.8811 267.16 53.0941 259.68C72.2141 240.4 91.0141 230 135.334 230H391.334C392.746 230 394.133 229.626 395.354 228.916C396.574 228.206 397.585 227.186 398.284 225.959C398.983 224.732 399.345 223.342 399.332 221.93C399.32 220.518 398.934 219.135 398.214 217.92L357.494 150H379.014L424.694 218.4C425.419 219.5 426.404 220.405 427.562 221.033C428.721 221.661 430.016 221.993 431.334 222H447.334C453.699 222 459.804 224.529 464.305 229.029C468.806 233.53 471.334 239.635 471.334 246V294C471.334 296.122 472.177 298.157 473.677 299.657C475.178 301.157 477.212 302 479.334 302H487.334V326H439.334C437.212 326 435.178 326.843 433.677 328.343C432.177 329.843 431.334 331.878 431.334 334C431.334 336.122 432.177 338.157 433.677 339.657C435.178 341.157 437.212 342 439.334 342H487.334C489.456 342 491.491 342.843 492.991 344.343C494.491 345.843 495.334 347.878 495.334 350C495.334 352.122 494.491 354.157 492.991 355.657C491.491 357.157 489.456 358 487.334 358H439.334C437.212 358 435.178 358.843 433.677 360.343C432.177 361.843 431.334 363.878 431.334 366C431.334 368.122 432.177 370.157 433.677 371.657C435.178 373.157 437.212 374 439.334 374H487.334C493.648 373.838 499.659 371.257 504.125 366.791C508.592 362.325 511.172 356.314 511.334 350C511.272 346.699 510.529 343.447 509.153 340.446C507.776 337.445 505.795 334.76 503.334 332.56ZM284.294 118H322.374L330.374 134H276.294L284.294 118ZM255.334 150V214H156.054L226.454 150H255.334ZM271.334 214V150H338.774L377.174 214H271.334Z" fill="#00A28A"/>
<path d="M159.334 334C159.334 336.122 160.177 338.157 161.677 339.657C163.178 341.157 165.212 342 167.334 342H311.334C313.456 342 315.491 341.157 316.991 339.657C318.491 338.157 319.334 336.122 319.334 334C319.334 331.878 318.491 329.843 316.991 328.343C315.491 326.843 313.456 326 311.334 326H167.334C165.212 326 163.178 326.843 161.677 328.343C160.177 329.843 159.334 331.878 159.334 334Z" fill="#00A28A"/>
<path d="M191.334 254H159.334C157.212 254 155.178 254.843 153.677 256.343C152.177 257.843 151.334 259.878 151.334 262C151.334 264.122 152.177 266.157 153.677 267.657C155.178 269.157 157.212 270 159.334 270H167.334V294C167.334 296.122 168.177 298.157 169.677 299.657C171.178 301.157 173.212 302 175.334 302C177.456 302 179.491 301.157 180.991 299.657C182.491 298.157 183.334 296.122 183.334 294V270H191.334C193.456 270 195.491 269.157 196.991 267.657C198.491 266.157 199.334 264.122 199.334 262C199.334 259.878 198.491 257.843 196.991 256.343C195.491 254.843 193.456 254 191.334 254Z" fill="#00A28A"/>
<path d="M223.334 254C217.02 254.162 211.009 256.743 206.543 261.209C202.077 265.675 199.496 271.686 199.334 278V294C199.334 296.122 200.177 298.157 201.677 299.657C203.178 301.157 205.212 302 207.334 302C209.456 302 211.491 301.157 212.991 299.657C214.491 298.157 215.334 296.122 215.334 294H231.334C231.334 296.122 232.177 298.157 233.677 299.657C235.178 301.157 237.212 302 239.334 302C241.456 302 243.491 301.157 244.991 299.657C246.491 298.157 247.334 296.122 247.334 294V278C247.172 271.686 244.592 265.675 240.125 261.209C235.659 256.743 229.648 254.162 223.334 254ZM215.334 278C215.334 275.878 216.177 273.843 217.677 272.343C219.178 270.843 221.212 270 223.334 270C225.456 270 227.491 270.843 228.991 272.343C230.491 273.843 231.334 275.878 231.334 278H215.334Z" fill="#00A28A"/>
<path d="M257.654 299.68C258.398 300.43 259.283 301.025 260.258 301.431C261.232 301.837 262.278 302.046 263.334 302.046C264.39 302.046 265.436 301.837 266.411 301.431C267.386 301.025 268.27 300.43 269.014 299.68L279.334 289.28L289.654 299.68C290.398 300.43 291.283 301.025 292.258 301.431C293.232 301.837 294.278 302.046 295.334 302.046C296.39 302.046 297.436 301.837 298.411 301.431C299.386 301.025 300.27 300.43 301.014 299.68C301.764 298.936 302.359 298.051 302.765 297.077C303.171 296.102 303.38 295.056 303.38 294C303.38 292.944 303.171 291.898 302.765 290.923C302.359 289.949 301.764 289.064 301.014 288.32L290.614 278L301.014 267.68C302.521 266.174 303.367 264.13 303.367 262C303.367 259.87 302.521 257.826 301.014 256.32C299.508 254.814 297.465 253.967 295.334 253.967C293.204 253.967 291.161 254.814 289.654 256.32L279.334 266.72L269.014 256.32C267.508 254.814 265.465 253.967 263.334 253.967C261.204 253.967 259.161 254.814 257.654 256.32C256.148 257.826 255.301 259.87 255.301 262C255.301 264.13 256.148 266.174 257.654 267.68L268.054 278L257.654 288.32C256.904 289.064 256.309 289.949 255.903 290.923C255.497 291.898 255.288 292.944 255.288 294C255.288 295.056 255.497 296.102 255.903 297.077C256.309 298.051 256.904 298.936 257.654 299.68Z" fill="#00A28A"/>
<path d="M327.334 294V262C327.334 259.878 326.491 257.843 324.991 256.343C323.491 254.843 321.456 254 319.334 254C317.212 254 315.178 254.843 313.677 256.343C312.177 257.843 311.334 259.878 311.334 262V294C311.334 296.122 312.177 298.157 313.677 299.657C315.178 301.157 317.212 302 319.334 302C321.456 302 323.491 301.157 324.991 299.657C326.491 298.157 327.334 296.122 327.334 294Z" fill="#00A28A"/>
<path d="M375.334 254H391.334V270H375.334V254Z" fill="#00A28A"/>
<path d="M391.334 270H407.334V286H391.334V270Z" fill="#00A28A"/>
<path d="M407.334 254H423.334V270H407.334V254Z" fill="#00A28A"/>
<path d="M439.334 254H455.334V270H439.334V254Z" fill="#00A28A"/>
<path d="M423.334 270H439.334V286H423.334V270Z" fill="#00A28A"/>
<path d="M55.3341 270H71.3341V286H55.3341V270Z" fill="#00A28A"/>
</g>
<defs>
<clipPath id="clip0_2_140">
<rect width="512" height="512" fill="white"/>
</clipPath>
</defs>
</svg>