<svg width="512" height="512" viewBox="0 0 512 512" fill="none" xmlns="http://www.w3.org/2000/svg">
<path d="M307.578 506.408C295.773 506.408 285.225 497.779 274.979 489.401C268.719 484.275 260.137 477.259 255.994 477.259C251.857 477.259 243.276 484.275 237.015 489.401C225.792 498.576 213.062 509.008 199.046 505.797C184.582 502.509 177.501 487.301 171.252 473.89C168.134 467.181 163.409 457.04 160.052 455.417C156.492 453.677 145.437 456.36 138.124 458.117C123.887 461.544 107.759 465.407 96.3549 456.313C84.9106 447.173 85.1142 430.527 85.3062 415.848C85.3993 408.36 85.5389 397.049 83.1302 394.024C80.7505 391.045 69.7367 388.688 62.4465 387.129C48.0291 384.045 31.7033 380.549 25.3033 367.283C18.9964 354.221 26.3564 339.408 32.8378 326.341C36.2065 319.568 41.2916 309.323 40.4015 305.395C39.5985 301.875 30.8364 295.074 25.0415 290.57C13.3062 281.471 0 271.138 0 256.197C0 241.256 13.3062 230.928 25.0473 221.817C30.8422 217.32 39.6044 210.518 40.4073 206.992C41.2975 203.065 36.2124 192.819 32.8495 186.041C26.3622 172.973 19.008 158.166 25.3207 145.093C31.7207 131.833 48.0465 128.336 62.4582 125.253C69.7484 123.693 80.7622 121.337 83.136 118.364C85.5564 115.333 85.4167 104.016 85.3236 96.5283C85.1375 81.849 84.9338 65.209 96.3724 56.0687C107.77 46.969 123.91 50.844 138.141 54.265C145.466 56.0221 156.509 58.681 160.064 56.9705C163.427 55.3472 168.145 45.212 171.27 38.4978C177.513 25.081 184.588 9.87813 199.052 6.59086C213.05 3.41413 225.804 13.8054 237.021 22.9865C243.287 28.1123 251.869 35.129 256.006 35.129C260.143 35.129 268.724 28.1123 274.985 22.9923C286.214 13.8054 298.938 3.39086 312.96 6.59086C327.418 9.87813 334.499 25.0869 340.748 38.5036C343.872 45.2119 348.591 55.353 351.953 56.9763C355.52 58.6927 366.557 56.0279 373.871 54.2709C388.108 50.8498 404.241 46.9749 415.645 56.0745C427.089 65.2149 426.886 81.8549 426.694 96.54C426.601 104.028 426.461 115.344 428.87 118.364C431.249 121.337 442.263 123.699 449.553 125.259C463.971 128.342 480.297 131.833 486.697 145.099C493.004 158.166 485.644 172.979 479.162 186.047C475.793 192.825 470.708 203.065 471.599 206.992C472.401 210.518 481.164 217.32 486.959 221.817C498.694 230.928 512 241.256 512 256.197C512 271.138 498.694 281.465 486.953 290.576C481.158 295.074 472.396 301.869 471.593 305.407C470.703 309.334 475.788 319.574 479.151 326.352C485.638 339.42 492.992 354.227 486.679 367.301C480.279 380.56 463.953 384.057 449.542 387.135C442.252 388.7 431.238 391.056 428.858 394.029C426.444 397.061 426.583 408.377 426.676 415.865C426.863 430.539 427.066 447.179 415.628 456.319C404.23 465.419 388.09 461.538 373.859 458.123C366.534 456.365 355.491 453.695 351.936 455.423C348.573 457.04 343.855 467.181 340.73 473.89C334.487 487.312 327.412 502.515 312.948 505.803C311.133 506.216 309.341 506.408 307.578 506.408ZM156.451 431.615C161.274 431.615 165.9 432.395 170.164 434.448C181.004 439.673 186.775 452.072 192.355 464.063C195.119 469.997 200.867 482.344 204.201 483.1C207.302 483.647 217.425 475.344 222.278 471.376C232.739 462.824 243.549 453.98 255.994 453.98C268.439 453.98 279.255 462.829 289.711 471.376C294.563 475.344 304.384 483.484 307.799 483.1C311.121 482.338 316.876 469.997 319.633 464.063C325.207 452.072 330.979 439.685 341.824 434.448C352.855 429.125 366.284 432.365 379.287 435.49C385.542 436.991 398.58 440.127 401.094 438.125C403.648 436.089 403.479 422.62 403.398 416.15C403.229 402.815 403.055 389.032 410.665 379.501C418.228 370.029 431.663 367.155 444.66 364.374C451.025 363.013 464.262 360.179 465.711 357.183C467.06 354.373 461.137 342.434 458.292 336.697C452.329 324.682 446.156 312.255 448.89 300.246C451.537 288.598 462.284 280.255 472.669 272.191C478.289 267.839 488.727 259.74 488.727 256.197C488.727 252.653 478.289 244.554 472.681 240.197C462.289 232.133 451.543 223.795 448.896 212.141C446.167 200.133 452.34 187.705 458.304 175.69C461.149 169.954 467.078 158.021 465.722 155.205C464.273 152.203 451.037 149.375 444.678 148.013C431.68 145.232 418.24 142.358 410.676 132.892C403.072 123.368 403.247 109.579 403.415 96.249C403.497 89.7792 403.665 76.3043 401.111 74.268C398.609 72.2665 385.565 75.4025 379.299 76.9036C366.301 80.028 352.873 83.2629 341.836 77.9392C330.996 72.7087 325.225 60.316 319.645 48.3305C316.881 42.396 311.139 30.0498 307.799 29.2934C304.599 28.7407 294.569 37.049 289.716 41.0112C279.261 49.5698 268.451 58.4134 256.006 58.4134C243.561 58.4134 232.751 49.564 222.289 41.0112C217.437 37.0432 207.313 28.7756 204.201 29.2876C200.873 30.044 195.119 42.3901 192.361 48.3247C186.781 60.3101 181.015 72.7029 170.176 77.9334C159.145 83.2512 145.716 80.028 132.707 76.8978C126.452 75.3909 113.402 72.2607 110.9 74.2563C108.346 76.2985 108.515 89.7676 108.596 96.2374C108.765 109.573 108.94 123.362 101.329 132.88C93.7658 142.352 80.3316 145.227 67.3338 148.008C60.9687 149.369 47.7324 152.203 46.2836 155.199C44.9338 158.009 50.8567 169.948 53.7018 175.685C59.6655 187.699 65.8385 200.127 63.104 212.136C60.4567 223.784 49.7105 232.127 39.3251 240.191C33.7105 244.554 23.2727 252.653 23.2727 256.197C23.2727 259.74 33.7105 267.845 39.3193 272.197C49.7105 280.261 60.4567 288.592 63.104 300.246C65.8327 312.255 59.6596 324.677 53.696 336.697C50.8509 342.434 44.9222 354.367 46.2778 357.183C47.7265 360.191 60.9629 363.019 67.328 364.38C80.32 367.161 93.76 370.035 101.324 379.507C108.928 389.032 108.753 402.815 108.585 416.15C108.503 422.62 108.335 436.095 110.889 438.131C113.391 440.104 126.435 436.997 132.701 435.49C140.666 433.57 148.806 431.615 156.451 431.615ZM182.772 345.878L345.681 182.969C350.225 178.425 350.225 171.059 345.681 166.515C341.137 161.971 333.772 161.971 329.228 166.515L166.319 329.424C161.775 333.968 161.775 341.334 166.319 345.878C168.593 348.153 171.567 349.288 174.545 349.288C177.524 349.288 180.497 348.153 182.772 345.878ZM197.818 238.742C175.366 238.742 157.091 220.473 157.091 198.015C157.091 175.557 175.366 157.288 197.818 157.288C220.271 157.288 238.545 175.557 238.545 198.015C238.545 220.473 220.271 238.742 197.818 238.742ZM197.818 180.56C188.195 180.56 180.364 188.392 180.364 198.015C180.364 207.638 188.195 215.469 197.818 215.469C207.441 215.469 215.273 207.638 215.273 198.015C215.273 188.392 207.441 180.56 197.818 180.56ZM314.182 355.106C291.729 355.106 273.455 336.831 273.455 314.378C273.455 291.926 291.729 273.651 314.182 273.651C336.634 273.651 354.909 291.926 354.909 314.378C354.909 336.831 336.634 355.106 314.182 355.106ZM314.182 296.924C304.559 296.924 296.727 304.755 296.727 314.378C296.727 324.002 304.559 331.833 314.182 331.833C323.805 331.833 331.636 324.002 331.636 314.378C331.636 304.755 323.805 296.924 314.182 296.924Z" fill="#00A28A"/>
</svg>