<svg width="512" height="512" viewBox="0 0 512 512" fill="none" xmlns="http://www.w3.org/2000/svg">
<path d="M272.805 195.395C268.66 195.395 265.301 198.758 265.301 202.902V223.426C265.301 227.57 268.66 230.93 272.805 230.93C276.949 230.93 280.312 227.57 280.312 223.426V202.902C280.312 198.758 276.949 195.395 272.805 195.395Z" fill="#00A28A"/>
<path d="M153.422 377.512H143.492C141.449 377.512 139.793 379.168 139.793 381.215V388.383C139.793 390.426 141.449 392.086 143.492 392.086H153.422C155.469 392.086 157.125 390.43 157.125 388.383V381.215C157.125 379.168 155.469 377.512 153.422 377.512Z" fill="#00A28A"/>
<path d="M239.68 198.59H229.75C227.707 198.59 226.047 200.246 226.047 202.293V209.461C226.047 211.508 227.703 213.164 229.75 213.164H239.68C241.723 213.164 243.383 211.508 243.383 209.461V202.293C243.383 200.246 241.723 198.59 239.68 198.59Z" fill="#00A28A"/>
<path d="M302.535 213.164H312.465C314.508 213.164 316.168 211.508 316.168 209.461V202.293C316.168 200.246 314.508 198.59 312.465 198.59H302.535C300.492 198.59 298.832 200.246 298.832 202.293V209.461C298.832 211.504 300.488 213.164 302.535 213.164Z" fill="#00A28A"/>
<path d="M302.535 243.656H312.465C314.508 243.656 316.168 242 316.168 239.953V232.785C316.168 230.742 314.508 229.082 312.465 229.082H302.535C300.492 229.082 298.832 230.738 298.832 232.785V239.953C298.832 242 300.488 243.656 302.535 243.656Z" fill="#00A28A"/>
<path d="M184.691 377.512H174.762C172.719 377.512 171.059 379.168 171.059 381.215V388.383C171.059 390.426 172.719 392.086 174.762 392.086H184.691C186.738 392.086 188.395 390.43 188.395 388.383V381.215C188.395 379.168 186.738 377.512 184.691 377.512Z" fill="#00A28A"/>
<path d="M153.422 407.691H143.492C141.449 407.691 139.793 409.352 139.793 411.395V418.563C139.793 420.609 141.449 422.266 143.492 422.266H153.422C155.469 422.266 157.125 420.609 157.125 418.563V411.395C157.125 409.352 155.469 407.691 153.422 407.691Z" fill="#00A28A"/>
<path d="M184.691 407.691H174.762C172.719 407.691 171.059 409.352 171.059 411.395V418.563C171.059 420.609 172.719 422.266 174.762 422.266H184.691C186.738 422.266 188.395 420.609 188.395 418.563V411.395C188.395 409.352 186.738 407.691 184.691 407.691Z" fill="#00A28A"/>
<path d="M153.422 437.875H143.492C141.449 437.875 139.793 439.531 139.793 441.578V448.746C139.793 450.789 141.449 452.449 143.492 452.449H153.422C155.469 452.449 157.125 450.793 157.125 448.746V441.578C157.125 439.531 155.469 437.875 153.422 437.875Z" fill="#00A28A"/>
<path d="M184.691 437.875H174.762C172.719 437.875 171.059 439.531 171.059 441.578V448.746C171.059 450.789 172.719 452.449 174.762 452.449H184.691C186.738 452.449 188.395 450.793 188.395 448.746V441.578C188.395 439.531 186.738 437.875 184.691 437.875Z" fill="#00A28A"/>
<path d="M153.422 468.055H143.492C141.449 468.055 139.793 469.715 139.793 471.758V478.93C139.793 480.973 141.449 482.629 143.492 482.629H153.422C155.469 482.629 157.125 480.973 157.125 478.93V471.758C157.125 469.715 155.469 468.055 153.422 468.055Z" fill="#00A28A"/>
<path d="M184.691 468.055H174.762C172.719 468.055 171.059 469.715 171.059 471.758V478.93C171.059 480.973 172.719 482.629 174.762 482.629H184.691C186.738 482.629 188.395 480.973 188.395 478.93V471.758C188.395 469.715 186.738 468.055 184.691 468.055Z" fill="#00A28A"/>
<path d="M368.543 437.875H358.613C356.57 437.875 354.91 439.531 354.91 441.578V448.746C354.91 450.789 356.566 452.449 358.613 452.449H368.543C370.586 452.449 372.246 450.793 372.246 448.746V441.578C372.246 439.531 370.586 437.875 368.543 437.875Z" fill="#00A28A"/>
<path d="M267.516 410.531H277.445C279.492 410.531 281.148 408.875 281.148 406.828V399.66C281.148 397.617 279.492 395.957 277.445 395.957H267.516C265.473 395.957 263.816 397.613 263.816 399.66V406.828C263.816 408.875 265.473 410.531 267.516 410.531Z" fill="#00A28A"/>
<path d="M267.516 436.031H277.445C279.492 436.031 281.148 434.371 281.148 432.328V425.16C281.148 423.113 279.492 421.457 277.445 421.457H267.516C265.473 421.457 263.816 423.113 263.816 425.16V432.328C263.816 434.371 265.473 436.031 267.516 436.031Z" fill="#00A28A"/>
<path d="M267.516 461.527H277.445C279.492 461.527 281.148 459.871 281.148 457.824V450.656C281.148 448.613 279.492 446.953 277.445 446.953H267.516C265.473 446.953 263.816 448.613 263.816 450.656V457.824C263.816 459.871 265.473 461.527 267.516 461.527Z" fill="#00A28A"/>
<path d="M267.516 487.027H277.445C279.492 487.027 281.148 485.367 281.148 483.324V476.156C281.148 474.109 279.492 472.453 277.445 472.453H267.516C265.473 472.453 263.816 474.109 263.816 476.156V483.324C263.816 485.367 265.473 487.027 267.516 487.027Z" fill="#00A28A"/>
<path d="M399.812 437.875H389.883C387.836 437.875 386.18 439.531 386.18 441.578V448.746C386.18 450.789 387.836 452.449 389.883 452.449H399.812C401.855 452.449 403.512 450.793 403.512 448.746V441.578C403.512 439.531 401.855 437.875 399.812 437.875Z" fill="#00A28A"/>
<path d="M368.543 468.055H358.613C356.57 468.055 354.91 469.715 354.91 471.758V478.93C354.91 480.973 356.566 482.629 358.613 482.629H368.543C370.586 482.629 372.246 480.973 372.246 478.93V471.758C372.246 469.715 370.586 468.055 368.543 468.055Z" fill="#00A28A"/>
<path d="M399.812 468.055H389.883C387.836 468.055 386.18 469.715 386.18 471.758V478.93C386.18 480.973 387.836 482.629 389.883 482.629H399.812C401.855 482.629 403.512 480.973 403.512 478.93V471.758C403.512 469.715 401.855 468.055 399.812 468.055Z" fill="#00A28A"/>
<path d="M218.941 254.16C214.797 254.16 211.434 257.52 211.434 261.664V331.109C211.434 335.254 214.797 338.613 218.941 338.613C223.086 338.613 226.445 335.254 226.445 331.109V261.664C226.445 257.52 223.086 254.16 218.941 254.16Z" fill="#00A28A"/>
<path d="M192.023 254.16C187.879 254.16 184.52 257.52 184.52 261.664V296.563C184.52 300.707 187.879 304.066 192.023 304.066C196.168 304.066 199.531 300.707 199.531 296.563V261.664C199.531 257.52 196.168 254.16 192.023 254.16Z" fill="#00A28A"/>
<path d="M351.613 355.18C355.758 355.18 359.117 351.82 359.117 347.676V294.035C359.117 289.891 355.758 286.531 351.613 286.531C347.469 286.531 344.109 289.891 344.109 294.035V347.676C344.109 351.82 347.469 355.18 351.613 355.18Z" fill="#00A28A"/>
<path d="M324.695 404.977C328.84 404.977 332.203 401.617 332.203 397.473V294.035C332.203 289.891 328.84 286.531 324.695 286.531C320.551 286.531 317.191 289.891 317.191 294.035V397.473C317.191 401.617 320.551 404.977 324.695 404.977Z" fill="#00A28A"/>
<path d="M445.359 496.988H427.285V424.32C427.285 415.031 419.727 407.477 410.438 407.477H407.012V381.707C407.012 374.836 401.422 369.242 394.547 369.242H384.215V276.836C384.215 268.477 377.418 261.68 369.062 261.68H346.152V241.344H428.949C435.891 241.344 441.535 235.699 441.535 228.758V224.93C441.535 211.961 430.984 201.41 418.016 201.41H408.125C407.43 180.719 390.379 164.098 369.523 164.098C360.789 164.098 352.672 167.023 346.152 171.98V166.41C346.152 161.066 342.406 156.586 337.398 155.441V130.84C337.398 123.18 331.168 116.949 323.512 116.949H319.098V98.918C319.098 91.2852 312.883 85.0742 305.25 85.0742H279.988V7.50391C279.988 3.35938 276.629 0 272.484 0C268.336 0 264.977 3.35938 264.977 7.50391V85.0742H238.715C231.078 85.0742 224.867 91.2852 224.867 98.918V116.949H220.453C212.793 116.949 206.562 123.18 206.562 130.84V155.441C201.559 156.586 197.812 161.066 197.812 166.414V227.391H174.902C166.547 227.391 159.746 234.188 159.746 242.543V308.977H145.457C141.312 308.977 137.953 312.336 137.953 316.484V347.211H130.805C122.375 347.211 115.516 354.066 115.516 362.5V496.988H97.4336C93.2852 496.988 89.9258 500.352 89.9258 504.496C89.9258 508.641 93.2852 512 97.4336 512H445.359C449.504 512 452.863 508.641 452.863 504.496C452.863 500.352 449.504 496.988 445.359 496.988ZM392.004 407.477H373.426V384.254H392.004V407.477ZM369.523 179.109C382.543 179.109 393.137 189.703 393.137 202.723C393.137 204.305 392.977 205.887 392.664 207.43C392.219 209.637 392.789 211.926 394.215 213.668C395.637 215.41 397.77 216.422 400.023 216.422H418.016C422.711 216.422 426.527 220.238 426.527 224.934V226.336H346.152V199.441C347.762 187.82 357.723 179.109 369.523 179.109ZM239.879 100.086H304.086V116.949H239.879V100.086ZM221.574 131.961H322.391V155.148H221.574V131.961ZM152.961 323.988H171.539V347.211H152.961V323.988ZM233.609 496.988H212.824V441.691C212.824 437.547 209.461 434.188 205.316 434.188C201.172 434.188 197.812 437.547 197.812 441.691V496.988H130.527V362.496C130.527 362.344 130.652 362.219 130.805 362.219H197.535C197.688 362.219 197.812 362.344 197.812 362.496V411.672C197.812 415.816 201.172 419.176 205.316 419.176C209.465 419.176 212.824 415.816 212.824 411.672V362.496C212.824 354.066 205.965 347.207 197.535 347.207H186.547V316.484C186.547 312.336 183.188 308.977 179.043 308.977H174.758V242.543C174.758 242.465 174.824 242.398 174.902 242.398H235.73C235.812 242.398 235.875 242.465 235.875 242.543V496.988H233.609ZM293.078 386.359V496.988H250.887V386.359H293.078ZM308.086 496.988V346.117C308.086 341.973 304.727 338.613 300.582 338.613C296.438 338.613 293.078 341.973 293.078 346.117V371.352H280.312V250.934C280.312 246.789 276.949 243.43 272.805 243.43C268.66 243.43 265.301 246.789 265.301 250.934V371.352H250.887V242.543C250.887 234.188 244.086 227.391 235.73 227.391H212.82V170.16H331.141V198.566C331.121 198.887 331.117 199.207 331.141 199.523V261.68H308.23C299.875 261.68 293.078 268.477 293.078 276.836V316.098C293.078 320.242 296.438 323.602 300.582 323.602C304.727 323.602 308.086 320.242 308.086 316.098V276.836C308.086 276.754 308.152 276.691 308.23 276.691H369.059C369.141 276.691 369.203 276.754 369.203 276.836V369.371C363.125 370.195 358.414 375.406 358.414 381.711V407.477H347.988C338.699 407.477 331.141 415.035 331.141 424.324V496.992H308.086V496.988ZM346.152 496.988V424.32C346.152 423.309 346.977 422.484 347.988 422.484H410.438C411.449 422.484 412.273 423.309 412.273 424.32V496.988H346.152Z" fill="#00A28A"/>
<path d="M197.492 116.512C197.492 106.508 189.352 98.3672 179.344 98.3672H172.77C169.102 87.9102 159.113 80.4492 147.566 80.4258C141.461 67.4922 128.301 58.9062 113.617 58.9062C92.918 58.9062 76.0781 75.7422 76.0781 96.4414C76.0781 97.0938 76.0977 97.7461 76.1289 98.3945C66.5938 98.9219 59 106.848 59 116.512C59 126.52 67.1406 134.66 77.1484 134.66H179.344C189.352 134.66 197.492 126.52 197.492 116.512ZM74.0117 116.512C74.0117 114.781 75.418 113.375 77.1484 113.375H85.1055C87.5117 113.375 89.7773 112.219 91.1875 110.266C92.5977 108.312 92.9844 105.805 92.2305 103.516C91.4727 101.227 91.0898 98.8477 91.0898 96.4414C91.0898 84.0195 101.195 73.9141 113.617 73.9141C123.77 73.9141 132.711 80.7539 135.359 90.543C136.434 94.5273 140.523 96.8945 144.512 95.8438C145.559 95.5703 146.539 95.4336 147.516 95.4336C153.664 95.4336 158.812 100.246 159.23 106.383C159.504 110.32 162.773 113.375 166.719 113.375H179.344C181.074 113.375 182.48 114.781 182.48 116.512C182.48 118.242 181.074 119.648 179.344 119.648H77.1484C75.418 119.648 74.0117 118.242 74.0117 116.512Z" fill="#00A28A"/>
</svg>