<svg width="512" height="512" viewBox="0 0 512 512" fill="none" xmlns="http://www.w3.org/2000/svg">
<path d="M51 443.733H51.0853C51.1195 460.894 57.8096 477.286 70.1915 490.069C83.6997 504.013 102.482 512 121.733 512H443.533C452.946 512 460.6 504.346 460.6 494.933V477.867C460.6 471.578 457.144 466.133 452.067 463.172V424.286C457.144 421.325 460.6 415.881 460.6 409.591V25.6C460.6 11.4859 449.114 0 435 0H119.267C81.6261 0 51 30.6261 51 68.2667V443.733ZM443.533 494.933H121.733C107.073 494.933 92.7536 488.832 82.4453 478.191C72.7685 468.198 67.6741 455.364 68.0923 442.061C68.4933 429.047 73.8096 416.777 83.0512 407.526C92.728 397.858 105.588 392.533 119.258 392.533H443.525V409.6H119.267C109.812 409.6 101.022 413.363 94.5285 420.198C88.0176 427.034 84.7067 436.019 85.176 445.491C86.0891 463.65 101.688 477.867 120.675 477.867H443.533V494.933ZM120.675 460.8C110.947 460.8 102.678 453.547 102.226 444.638C101.987 439.876 103.642 435.371 106.893 431.957C110.136 428.553 114.539 426.667 119.267 426.667H435V460.8H120.675ZM443.533 25.6V375.467H127.8V17.0667H435C439.71 17.0667 443.533 20.8896 443.533 25.6ZM110.733 17.8347V376.055C95.7403 377.916 81.8565 384.606 70.9936 395.46C69.9611 396.493 69.0224 397.594 68.0667 398.677V68.2667C68.0667 42.9483 86.5584 21.9221 110.733 17.8347Z" fill="#00A28A"/>
<path d="M294.2 102.4C310.669 102.4 324.067 89.0026 324.067 72.5333C324.067 56.064 310.669 42.6666 294.2 42.6666C277.731 42.6666 264.333 56.064 264.333 72.5333C264.333 89.0026 277.731 102.4 294.2 102.4ZM294.2 59.7333C301.257 59.7333 307 65.4762 307 72.5333C307 79.5904 301.257 85.3333 294.2 85.3333C287.143 85.3333 281.4 79.5904 281.4 72.5333C281.4 65.4762 287.143 59.7333 294.2 59.7333Z" fill="#00A28A"/>
<path d="M226.07 148.958C227.162 152.235 229.586 154.94 232.7 156.399C235.832 157.85 239.476 157.961 242.693 156.698C245.415 155.631 248.137 154.752 251.431 154.283C251.602 154.411 251.866 154.692 251.866 155.153C251.866 155.264 251.849 155.366 251.815 155.477C251.781 155.58 251.747 155.674 251.721 155.767L234.467 214.537C231.437 226.654 234.074 239.275 241.729 249.173C249.17 258.816 260.357 264.414 273.234 264.542C294.371 264.542 311.471 256.333 317.846 252.817C323.188 249.873 325.662 243.533 323.717 237.747L319.979 226.517C318.887 223.241 316.463 220.535 313.349 219.076C310.209 217.617 306.573 217.498 303.356 218.778C300.634 219.844 297.912 220.723 294.618 221.193C294.447 221.065 294.183 220.783 294.328 219.708L311.582 160.93C314.612 148.813 311.966 136.192 304.312 126.293C296.871 116.659 285.684 111.061 272.815 110.933C251.678 110.933 234.578 119.142 228.203 122.658C222.861 125.602 220.387 131.942 222.332 137.728L226.07 148.958ZM273.464 128C280.257 128.068 286.58 131.251 290.812 136.721C295.241 142.455 296.777 149.769 295.122 156.45L278.046 214.588C277.432 216.439 277.116 218.359 277.116 220.314C277.116 225.92 279.659 231.134 284.079 234.607C288.431 238.029 293.995 239.258 299.354 237.926C301.291 237.449 303.254 236.885 305.225 236.228L306.334 239.556C299.678 242.782 287.459 247.475 272.585 247.475C265.784 247.407 259.461 244.224 255.228 238.746C250.799 233.011 249.272 225.707 250.927 219.025L268.062 160.717C268.643 158.916 268.941 157.047 268.941 155.162C268.941 149.555 266.398 144.341 261.978 140.868C257.626 137.455 252.062 136.226 246.703 137.549C244.766 138.027 242.804 138.59 240.833 139.247L239.723 135.919C246.379 132.693 258.59 128 273.464 128Z" fill="#00A28A"/>
<path d="M204.6 298.667H358.2C362.919 298.667 366.733 294.852 366.733 290.133C366.733 285.414 362.919 281.6 358.2 281.6H204.6C199.881 281.6 196.066 285.414 196.066 290.133C196.066 294.852 199.881 298.667 204.6 298.667Z" fill="#00A28A"/>
<path d="M324.067 324.267H238.734C234.015 324.267 230.2 328.081 230.2 332.8C230.2 337.519 234.015 341.333 238.734 341.333H324.067C328.786 341.333 332.6 337.519 332.6 332.8C332.6 328.081 328.786 324.267 324.067 324.267Z" fill="#00A28A"/>
</svg>